<svg id="Layer_1" enable-background="new 0 0 512 512" height="512" viewBox="0 0 512 512" width="512" xmlns="http://www.w3.org/2000/svg"><g><path d="m480.175 284.298c26.5-58.576-17.077-125.374-81.639-124.277-9.848-53.614-66.135-85.767-117.491-66.39-26.594-24.304-60.846-37.623-97.045-37.623-86.217 0-153.259 75.516-142.963 161.346-26.141 21.375-41.037 52.693-41.037 86.654 0 80.544 82.676 134.35 155.86 103.08 54.869 62.444 149.375 64.735 207.747 8.895 16.269 15.361 37.84 24.025 60.393 24.025 48.523 0 88-39.477 88-88 0-26.226-11.782-51.057-31.825-67.71zm-56.175 139.71c-20.804 0-40.593-9.019-54.293-24.743-3.158-3.625-8.717-3.61-11.894-.188-52.889 56.957-144.299 54.271-193.53-6.823-2.352-2.92-6.417-3.813-9.777-2.151-63.25 31.294-138.506-14.751-138.506-86.095 0-30.471 13.992-58.462 38.389-76.796 2.357-1.771 3.549-4.695 3.101-7.609-11.941-77.796 48.376-147.595 126.51-147.595 33.756 0 65.611 13.033 89.697 36.697 2.35 2.309 5.875 2.941 8.881 1.593 44.151-19.806 96.392 8.813 101.091 58.894.199 2.126 1.241 4.085 2.892 5.439 3.554 2.914 5.975 1.377 13.439 1.377 54.735 0 89.435 58.999 63.064 106.747-1.972 3.57-.942 8.052 2.39 10.403 19.127 13.502 30.546 35.502 30.546 58.85 0 39.701-32.299 72-72 72z"/><path d="m348 232.008c-15.439 0-28 12.561-28 28v4c0 4.418 3.582 8 8 8s8-3.582 8-8v-4c0-6.617 5.383-12 12-12 12.432 0 16.407 16.826 6.174 22.966l-20.581 12.348c-8.385 5.032-13.594 14.231-13.594 24.01v12.676c0 4.418 3.582 8 8 8h40c4.418 0 8-3.582 8-8s-3.582-8-8-8h-32v-4.676c0-4.191 2.232-8.134 5.826-10.29l20.581-12.348c8.098-4.859 13.594-13.676 13.594-24.686 0-15.439-12.561-28-28-28z"/><path d="m256 192.008c-26.467 0-48 21.533-48 48v40c0 26.467 21.533 48 48 48s48-21.533 48-48v-40c0-26.467-21.533-48-48-48zm32 88c0 17.645-14.355 32-32 32s-32-14.355-32-32v-40c0-17.645 14.355-32 32-32s32 14.355 32 32z"/><path d="m183.861 288.677c-4.047-1.766-8.764.081-10.533 4.13-5.093 11.664-16.605 19.201-29.329 19.201-17.645 0-32-14.355-32-32v-40c0-28.593 34.639-42.608 54.624-22.623 2.849 2.849 5.104 6.152 6.704 9.82 1.767 4.051 6.481 5.902 10.531 4.135 4.05-1.766 5.901-6.481 4.135-10.531-2.403-5.511-5.787-10.47-10.056-14.739-29.966-29.966-81.937-8.963-81.937 33.938v40c0 26.467 21.533 48 48 48 19.085 0 36.353-11.304 43.992-28.799 1.768-4.048-.081-8.764-4.131-10.532z"/></g></svg>