<?xml version="1.0" encoding="iso-8859-1"?>
<!-- Generator: Adobe Illustrator 18.1.1, SVG Export Plug-In . SVG Version: 6.00 Build 0)  -->
<svg version="1.1" id="Capa_1" xmlns="http://www.w3.org/2000/svg" xmlns:xlink="http://www.w3.org/1999/xlink" x="0px" y="0px"
	 viewBox="0 0 212.495 212.495" style="enable-background:new 0 0 212.495 212.495;" xml:space="preserve">
<g>
	<path style="fill:#010002;" d="M189.917,49.052c-1.442-0.673-2.97-1.027-4.402-1.027c-2.069,0-3.794,0.723-4.871,2.029
		c-6.374,7.763-12.211,22.862-16.917,34.99c-2.162,5.608-5.061,13.116-7.025,16.638c-1.074-10.325,3.561-47.559,5.343-61.893
		l0.029-0.233c1.242-9.96,1.435-11.706,1.374-12.487c-0.48-5.544-2.416-9.298-5.758-11.152c-3.378-1.875-7.974-1.474-13.063,1.142
		c-2.559,1.317-3.597,6.381-7.315,29.397l-0.018,0.104c-2.047,12.644-6.764,41.765-10.382,46.414
		c-3.225-7.086-5.604-46.239-6.635-63.185c-0.716-11.867-1.142-18.682-1.6-20.764c-0.97-4.363-6.07-8.375-11.356-8.944
		c-4.398-0.526-8.178,1.474-10.178,5.268c-3.486,3.389-3.182,15.453-1.593,44.084c0.755,13.628,2.316,41.772-0.111,44.754
		c-4.37-0.791-10.715-18.796-18.85-53.532c-2.283-9.727-2.995-12.658-3.815-13.975C71.292,22.19,65.459,18.4,59.99,18.4
		c-0.465,0-0.923,0.029-1.374,0.079c-2.888,0.369-9.57,2.548-9.033,14.802c2.659,17.121,5.966,29.783,9.173,42.077l0.064,0.247
		c1.918,7.362,3.733,14.319,5.332,22.006c3.769,18.159,1.049,29.075,1.016,29.196c-0.243,1.124-0.641,1.797-1.188,2.001
		c-0.197,0.075-0.444,0.115-0.716,0.115c-1.596,0-3.905-1.224-5.086-1.997c-2.43-5.587-14.602-32.228-27.01-36.672l-0.447-0.168
		l-0.462,0.011c-4.681,0.122-8.217,1.646-10.515,4.538c-3.643,4.567-2.702,10.776-2.455,12.021l0.154,0.455
		c0.089,0.193,8.944,19.487,9.906,28.241c0.837,7.512,7.287,16.03,12.465,22.883l0.215,0.276c1.689,2.244,3.146,4.18,4.28,5.955
		c15.149,18.266,39.997,34.486,40.201,34.618c3.056,2.613,4.688,5.05,4.738,7.054c0.029,1.313-0.698,2.044-0.723,2.069l-0.601,0.551
		l3.332,3.74l0.619-0.533c0.243-0.215,2.426-2.197,2.405-5.791c-0.014-3.568-2.283-7.304-6.778-11.127
		c-0.247-0.161-24.898-16.398-39.12-33.516c-1.138-1.822-2.874-4.109-4.549-6.327c-4.556-6.023-10.797-14.283-11.477-20.399
		c-1.013-9.13-9.158-27.214-10.196-29.483c-0.129-0.916-0.558-4.957,1.525-7.555c1.26-1.575,3.343-2.452,6.199-2.609
		c11.119,4.631,23.817,34.124,23.943,34.421l0.268,0.626l0.544,0.419c0.759,0.555,4.753,3.335,8.621,3.335
		c0.888,0,1.721-0.14,2.466-0.426c1.542-0.576,3.547-2.015,4.32-5.536c0.125-0.48,3.049-11.989-0.981-31.397
		c-1.603-7.766-3.457-14.867-5.418-22.382l-0.032-0.111c-3.16-12.093-6.428-24.597-9.04-41.304c-0.24-5.594,1.424-8.901,4.678-9.319
		c3.708-0.523,8.285,2.638,8.8,5.039l0.365,1.689l0.397,0.057c0.687,2.248,1.99,7.82,2.856,11.549
		c7.376,31.429,14.28,57.448,24.039,57.448c0.795,0,1.961-0.233,3.013-1.349c4.012-4.23,3.375-21.24,1.847-48.765
		c-0.744-13.335-2.126-38.143-0.19-39.976l0.709-0.401l0.34-0.737c0.92-1.976,2.459-2.981,4.574-2.981
		c0.261,0,0.515,0.014,0.759,0.047c3.099,0.336,6.496,2.777,6.993,5.028c0.383,1.729,0.888,10.039,1.474,19.651l0.018,0.326
		c3.335,54.993,5.54,68.42,11.213,68.42c6.442,0,9.595-12.798,15.804-51.253l0.029-0.157c1.525-9.42,3.815-23.585,4.839-25.668
		c3.335-1.668,6.36-2.076,8.117-1.113c2.226,1.231,2.963,4.545,3.178,7.072c0.007,0.687-0.676,6.202-1.342,11.542
		c-6.027,48.411-6.893,65.017-3.565,68.349c0.884,0.877,2.129,1.256,3.246,0.998c3.393-0.716,5.637-5.823,11.671-21.444
		c4.556-11.782,10.221-26.441,16.094-33.584c0.054-0.054,0.333-0.197,0.948-0.197c0.719,0,1.542,0.197,2.323,0.558
		c1.464,0.684,2.928,2.015,2.62,3.701c-1.532,8.432-8.435,31.981-13.485,49.173c-4.366,14.877-6.163,21.101-6.31,22.772
		c0,0.311-0.136,31.286-11.796,68.539l-3.854,13.016l4.831,1.428l3.84-12.973c11.635-37.181,12.014-69.541,12-69.763
		c0.118-1.181,3.443-12.476,6.12-21.598l0.075-0.233c5.322-18.191,11.957-40.81,13.532-49.478
		C196.047,54.496,193.907,50.899,189.917,49.052z"/>
</g>
<g>
</g>
<g>
</g>
<g>
</g>
<g>
</g>
<g>
</g>
<g>
</g>
<g>
</g>
<g>
</g>
<g>
</g>
<g>
</g>
<g>
</g>
<g>
</g>
<g>
</g>
<g>
</g>
<g>
</g>
</svg>
